<?xml version="1.0" encoding="UTF-8"?>
<svg id="_图层_1" data-name="图层 1" xmlns="http://www.w3.org/2000/svg" xmlns:xlink="http://www.w3.org/1999/xlink" viewBox="0 0 112.83 147.45">
  <defs>
    <style>
      .cls-1 {
        fill: url(#linear-gradient-2);
      }

      .cls-2 {
        fill: url(#linear-gradient-4);
      }

      .cls-3 {
        fill: url(#linear-gradient-3);
      }

      .cls-4 {
        fill: url(#linear-gradient-5);
      }

      .cls-5 {
        fill: #231815;
      }

      .cls-6 {
        fill: url(#linear-gradient-6);
      }

      .cls-7 {
        fill: url(#linear-gradient);
      }
    </style>
    <linearGradient id="linear-gradient" x1="5326.08" y1="26.17" x2="5326.08" y2="74.08" gradientTransform="translate(-5053.63 147.45) scale(.96 -.93)" gradientUnits="userSpaceOnUse">
      <stop offset="0" stop-color="#2b2f89"/>
      <stop offset="1" stop-color="#0c6bb0"/>
    </linearGradient>
    <linearGradient id="linear-gradient-2" x1="18" y1="70.74" x2="18" y2="97.35" gradientUnits="userSpaceOnUse">
      <stop offset="0" stop-color="#32a2d3"/>
      <stop offset="1" stop-color="#a6d7ec"/>
    </linearGradient>
    <linearGradient id="linear-gradient-3" x1="51.3" y1="64.31" x2="51.3" y2="82.48" xlink:href="#linear-gradient-2"/>
    <linearGradient id="linear-gradient-4" x1="78.21" y1="64.31" x2="78.21" y2="77.16" xlink:href="#linear-gradient-2"/>
    <linearGradient id="linear-gradient-5" x1="197.7" y1="219.83" x2="197.7" y2="228.27" gradientTransform="translate(-195.47 123.86) rotate(-58.82)" xlink:href="#linear-gradient-2"/>
    <linearGradient id="linear-gradient-6" x1="4903.01" y1="70.94" x2="4903.01" y2="149.58" gradientTransform="translate(4959.43 149.58) rotate(-180)" xlink:href="#linear-gradient-2"/>
  </defs>
  <path class="cls-7" d="M83.98,80.21c-15.65,5.83-49.4,33.88-68.15,23.4l29.16,16.28c7.74,4.32,17.29,4.32,25.02,0l29.16-16.28c.16-.09.33-.19.49-.29.16-.09.31-.19.45-.28,14.22-9.19,3.96-30.33-16.12-22.84Z"/>
  <circle class="cls-1" cx="18" cy="84.04" r="13.31"/>
  <circle class="cls-3" cx="51.3" cy="73.4" r="9.08"/>
  <circle class="cls-2" cx="78.21" cy="70.74" r="6.42"/>
  <circle class="cls-4" cx="98.57" cy="70.74" r="4.22"/>
  <path class="cls-6" d="M0,78.64v-35.05c0-9.3,4.97-17.91,13.03-22.56L43.39,3.5c8.06-4.66,18-4.66,26.06,0l30.36,17.53c8.06,4.65,13.03,13.26,13.03,22.56,0,9.96-8.07,18.02-18.03,18.02-16.31,0-42.75-13.29-64.48-13.29C13.57,48.32,0,61.89,0,78.64Z"/>
  <g>
    <path class="cls-5" d="M7,143.77l-.55,3.47h-3.72l3.2-16.21h5.23l3.24,16.21h-3.87l-.57-3.47h-2.96ZM9.47,140.64c-.37-2.37-.72-5-.93-6.49h-.12c-.16,1.55-.55,4.13-.94,6.49h1.99Z"/>
    <path class="cls-5" d="M19.35,131.03v16.21h-3.73v-16.21h3.73Z"/>
    <path class="cls-5" d="M21.84,131.03h4.63c4.23,0,5.96,2.4,5.96,7.79,0,5.74-1.7,8.42-6.09,8.42h-4.5v-16.21ZM25.58,144.41h.69c1.73,0,2.24-1.22,2.24-5.65,0-3.7-.46-4.87-2.22-4.87h-.72v10.52Z"/>
    <path class="cls-5" d="M34.39,131.03h4.63c4.23,0,5.96,2.4,5.96,7.79,0,5.74-1.7,8.42-6.09,8.42h-4.5v-16.21ZM38.13,144.41h.69c1.73,0,2.24-1.22,2.24-5.65,0-3.7-.46-4.87-2.22-4.87h-.72v10.52Z"/>
    <path class="cls-5" d="M46.94,131.03h5.32c2.81,0,4.84,1.56,4.84,4.91s-1.81,4.97-5,4.97h-1.45v6.33h-3.7v-16.21ZM50.64,138.06h.97c1.28,0,1.77-.63,1.77-2.15s-.65-2.08-1.69-2.08h-1.04v4.23Z"/>
    <path class="cls-5" d="M68.65,142.05c0-2.52.04-5.87.09-7.83h-.11c-.48,3.38-1.15,8.86-1.88,13.02h-3.01c-.57-4.33-1.24-9.78-1.69-13.06h-.12c.08,1.9.15,5.18.15,7.99v5.07h-3.28v-16.21h5.24c.53,3.38,1.07,7.45,1.31,9.72h.07c.31-2.41.92-5.93,1.53-9.72h5.19v16.21h-3.5v-5.19Z"/>
    <path class="cls-5" d="M78.65,131.03h3.72v13.18h5.14l-.35,3.03h-8.52v-16.21Z"/>
    <path class="cls-5" d="M98.02,144.13c0,.86.06,2.48.1,3.11h-3.31c-.07-.27-.14-.78-.15-1.1-.62.85-1.49,1.31-2.82,1.31-2.24,0-3.35-1.73-3.35-3.89,0-2.76,1.86-4.15,4.93-4.15.37,0,.75,0,1,.02v-1.23c0-.68-.1-1.25-1-1.25-.84,0-.98.53-1.03,1.43h-3.44c.05-2.23,1.13-3.98,4.61-3.98,2.94,0,4.45,1.18,4.45,3.78v5.94ZM94.46,141.75c-.22-.03-.43-.03-.7-.03-1.27,0-1.67.67-1.67,1.53,0,.73.3,1.35,1.09,1.35,1.08,0,1.27-.84,1.27-2.26v-.6Z"/>
    <path class="cls-5" d="M100.2,130.26h3.67v5.48c.44-.73,1.26-1.33,2.66-1.33,2.47,0,3.58,1.98,3.58,6.15,0,4.52-1.06,6.9-3.92,6.9-1.55,0-2.08-.73-2.41-1.33,0,.26-.03.76-.07,1.11h-3.53c.02-1,.02-2.34.02-3.37v-13.61ZM106.41,140.69c0-2.39-.2-3.38-1.27-3.38-1,0-1.33.68-1.33,3.62s.26,3.62,1.25,3.62,1.35-.96,1.35-3.87Z"/>
  </g>
</svg>