<?xml version="1.0" encoding="UTF-8"?>
<svg id="_图层_1" data-name="图层 1" xmlns="http://www.w3.org/2000/svg" xmlns:xlink="http://www.w3.org/1999/xlink" viewBox="0 0 119.77 153.07">
  <defs>
    <style>
      .cls-1 {
        fill: url(#linear-gradient-2);
      }

      .cls-2 {
        fill: #231815;
        font-family: AcuminConcept-CondBlack, 'Acumin Variable Concept';
        font-size: 24px;
        font-variation-settings: 'wght' 800, 'wdth' 67, 'slnt' 0;
        font-weight: 800;
      }

      .cls-3 {
        fill: url(#linear-gradient-4);
      }

      .cls-4 {
        letter-spacing: 0em;
      }

      .cls-5 {
        letter-spacing: 0em;
      }

      .cls-6 {
        fill: url(#linear-gradient-3);
      }

      .cls-7 {
        fill: url(#linear-gradient-5);
      }

      .cls-8 {
        letter-spacing: .01em;
      }

      .cls-9 {
        fill: url(#linear-gradient-6);
      }

      .cls-10 {
        fill: url(#linear-gradient);
      }
    </style>
    <linearGradient id="linear-gradient" x1="5326.08" y1="26.17" x2="5326.08" y2="74.08" gradientTransform="translate(-5053.63 147.45) scale(.96 -.93)" gradientUnits="userSpaceOnUse">
      <stop offset="0" stop-color="#2b2f89"/>
      <stop offset="1" stop-color="#0c6bb0"/>
    </linearGradient>
    <linearGradient id="linear-gradient-2" x1="18" y1="70.74" x2="18" y2="97.35" gradientUnits="userSpaceOnUse">
      <stop offset="0" stop-color="#32a2d3"/>
      <stop offset="1" stop-color="#a6d7ec"/>
    </linearGradient>
    <linearGradient id="linear-gradient-3" x1="51.3" y1="64.31" x2="51.3" y2="82.48" xlink:href="#linear-gradient-2"/>
    <linearGradient id="linear-gradient-4" x1="78.21" y1="64.31" x2="78.21" y2="77.16" xlink:href="#linear-gradient-2"/>
    <linearGradient id="linear-gradient-5" x1="197.7" y1="219.83" x2="197.7" y2="228.27" gradientTransform="translate(-195.47 123.86) rotate(-58.82)" xlink:href="#linear-gradient-2"/>
    <linearGradient id="linear-gradient-6" x1="4903.01" y1="70.94" x2="4903.01" y2="149.58" gradientTransform="translate(4959.43 149.58) rotate(-180)" xlink:href="#linear-gradient-2"/>
  </defs>
  <path class="cls-10" d="M83.98,80.21c-15.65,5.83-49.4,33.88-68.15,23.4l29.16,16.28c7.74,4.32,17.29,4.32,25.02,0l29.16-16.28c.16-.09.33-.19.49-.29.16-.09.31-.19.45-.28,14.22-9.19,3.96-30.33-16.12-22.84Z"/>
  <circle class="cls-1" cx="18" cy="84.04" r="13.31"/>
  <circle class="cls-6" cx="51.3" cy="73.4" r="9.08"/>
  <circle class="cls-3" cx="78.21" cy="70.74" r="6.42"/>
  <circle class="cls-7" cx="98.57" cy="70.74" r="4.22"/>
  <path class="cls-9" d="M0,78.64v-35.05c0-9.3,4.97-17.91,13.03-22.56L43.39,3.5c8.06-4.66,18-4.66,26.06,0l30.36,17.53c8.06,4.65,13.03,13.26,13.03,22.56,0,9.96-8.07,18.02-18.03,18.02-16.31,0-42.75-13.29-64.48-13.29C13.57,48.32,0,61.89,0,78.64Z"/>
  <text class="cls-2" transform="translate(1 147.24)"><tspan class="cls-4" x="0" y="0">A</tspan><tspan x="11.78" y="0">I</tspan><tspan class="cls-5" x="18" y="0">DDP</tspan><tspan x="54.94" y="0">M </tspan><tspan class="cls-8" x="74.81" y="0">L</tspan><tspan x="85.32" y="0">ab</tspan></text>
</svg>